<svg width="24" height="24" viewBox="0 0 24 24" fill="none" xmlns="http://www.w3.org/2000/svg">
<path d="M22 11.9988C22.0031 13.9844 21.4127 15.9255 20.3044 17.5728C19.3905 18.9363 18.1546 20.0536 16.7062 20.8257C15.2577 21.5979 13.6414 22.0012 12 22C10.3586 22.0012 8.74226 21.5979 7.29382 20.8257C5.84539 20.0536 4.60953 18.9363 3.69556 17.5728C2.82526 16.2754 2.271 14.792 2.07723 13.2417C1.88346 11.6914 2.05555 10.1172 2.57972 8.64543C3.10389 7.17363 3.96555 5.84512 5.09563 4.7664C6.22571 3.68767 7.59277 2.88875 9.08723 2.43366C10.5817 1.97858 12.162 1.88 13.7014 2.14582C15.2408 2.41164 16.6965 3.03446 17.9519 3.96437C19.2072 4.89428 20.2273 6.10541 20.9303 7.50065C21.6333 8.8959 21.9996 10.4365 22 11.9988Z" stroke="#7E7E7E" stroke-width="2"/>
<path d="M5.166 18.856L4.207 18.571L4.052 19.094L4.407 19.507L5.166 18.856ZM18.834 18.856L19.594 19.507L19.948 19.094L19.793 18.571L18.834 18.856ZM9 17H15V15H9V17ZM9 15C7.92306 14.9997 6.87478 15.3471 6.01118 15.9905C5.14757 16.6339 4.51479 17.539 4.207 18.571L6.124 19.141C6.30897 18.5221 6.68879 17.9793 7.20697 17.5936C7.72515 17.2078 8.354 16.9997 9 17V15ZM12 21C10.8455 21.0013 9.70444 20.7521 8.65561 20.2695C7.60678 19.787 6.67515 19.0826 5.925 18.205L4.407 19.507C5.34489 20.6035 6.50939 21.4836 7.82023 22.0866C9.13108 22.6897 10.5571 23.0013 12 23V21ZM15 17C16.357 17 17.506 17.902 17.876 19.142L19.793 18.571C19.4853 17.5391 18.8516 16.6342 17.9882 15.9908C17.1248 15.3474 16.0768 14.9999 15 15V17ZM18.075 18.205C17.3249 19.0826 16.3932 19.787 15.3444 20.2695C14.2956 20.7521 13.1545 21.0013 12 21V23C13.4429 23.0013 14.8689 22.6897 16.1798 22.0866C17.4906 21.4836 18.6561 20.6035 19.594 19.507L18.075 18.205Z" fill="#7E7E7E"/>
<circle cx="12" cy="10" r="3" stroke="#7E7E7E" stroke-width="2"/>
</svg>
